<?xml version="1.0" encoding="utf-8"?>
<!-- Generator: Adobe Illustrator 21.0.2, SVG Export Plug-In . SVG Version: 6.00 Build 0)  -->
<svg version="1.1" id="Layer_1" xmlns="http://www.w3.org/2000/svg" xmlns:xlink="http://www.w3.org/1999/xlink" x="0px" y="0px" width="20" height="20" fill="auto"
	 viewBox="0 0 20 20" style="enable-background:new 0 0 20 20;" xml:space="preserve">
<g>
	<path d="M5.9,13.2c-0.2,0.6-0.4,1.2-0.4,1.8c0,0.7,0.2,1.4,0.5,2h1.3L5.9,13.2z"/>
	<path d="M12.9,17H14c0.3-0.6,0.5-1.3,0.5-2c0-0.8-0.2-1.5-0.6-2.2c0,0.1,0,0.3,0,0.5c0,0.5-0.1,1-0.3,1.6L12.9,17z"/>
	<path d="M2,3v12c0,1.1,0.9,2,2,2h1.4C5.2,16.4,5,15.7,5,15c0-2.8,2.2-5,5-5c2.8,0,5,2.2,5,5c0,0.7-0.2,1.4-0.4,2H16
		c1.1,0,2-0.9,2-2V3H2z M11,7H9C7.9,7,7,6.1,7,5h6C13,6.1,12.1,7,11,7z"/>
	<polygon points="10.1,15.4 9.5,17 10.7,17 	"/>
	<path d="M13,11.7C13,11.7,13,11.7,13,11.7c-0.7-0.7-1.8-1.2-3-1.2c-1.6,0-3,0.8-3.8,2c0.1,0,0.2,0,0.3,0c0.5,0,1.2-0.1,1.2-0.1
		c0.2,0,0.3,0.3,0,0.4c0,0-0.2,0-0.5,0L8.6,17h0.5l0.7-2.2l-0.7-1.9c-0.2,0-0.5,0-0.5,0c-0.2,0-0.2-0.4,0-0.4c0,0,0.7,0.1,1.2,0.1
		c0.5,0,1.2-0.1,1.2-0.1c0.2,0,0.3,0.3,0,0.4c0,0-0.2,0-0.5,0L12,17h0.5l0.2-0.8c0.2-0.6,0.3-1.1,0.3-1.5c0-0.6-0.2-0.9-0.4-1.2
		c-0.2-0.4-0.4-0.7-0.4-1.1C12.2,12.1,12.5,11.7,13,11.7z"/>
</g>
</svg>
